
<svg xmlns="http://www.w3.org/2000/svg" viewBox="0 0 27 30"><style> path { fill: orange; stroke: orange; stroke-width: 1px; } @media (prefers-color-scheme: dark) { path { fill: lightcoral; stroke: lightcoral; } } </style><path d="M22.95 0c1.27 0 2.2.42 2.81 1.27.42.59.7 1.22.82 1.9L20.71 8.2a3.24 3.24 0 01-.46-.5l-.6-.76c-.1-.13-.22-.24-.33-.32a.76.76 0 00-.46-.13c-.83 0-1.9 1.12-3.24 3.37a46.82 46.82 0 00-3.37 6.87c-.63 1.62-1.41 3.9-2.35 6.88-.93 2.96-1.61 5.1-2.06 6.39H1.91l.69-2.31H.7c1.6-5.24 2.91-9.81 3.97-13.72 1.3-4.82 1.96-7.68 1.96-8.6 0-.8-.26-1.32-.79-1.55a7.46 7.46 0 00-2.73-.35V1.75A83.67 83.67 0 0016.13 0L12.5 11.55l.28.06a60.66 60.66 0 014.48-7.67C19.24 1.31 21.13 0 22.95 0z"/></svg>